<?xml version="1.0" standalone="no"?>
<!DOCTYPE svg PUBLIC "-//W3C//DTD SVG 20010904//EN"
 "http://www.w3.org/TR/2001/REC-SVG-20010904/DTD/svg10.dtd">
<svg version="1.0" xmlns="http://www.w3.org/2000/svg"
 width="1000.000000pt" height="1000.000000pt" viewBox="0 0 1000.000000 1000.000000"
 preserveAspectRatio="xMidYMid meet">
<metadata>
Created by potrace 1.14, written by Peter Selinger 2001-2017
</metadata>
<g transform="translate(0.000000,1000.000000) scale(0.100000,-0.100000)"
fill="#000000" stroke="none">
<path d="M1750 9980 c-19 -19 -20 -38 -17 -2112 2 -1151 6 -2109 9 -2128 6
-33 14 -99 24 -185 17 -160 63 -360 127 -555 76 -230 198 -460 343 -647 77
-99 247 -275 316 -325 20 -15 43 -34 50 -42 8 -7 62 -46 121 -85 214 -144 463
-249 767 -326 3 0 36 -7 74 -14 48 -10 78 -22 94 -38 27 -27 27 -25 -2 -159
-9 -39 -18 -88 -21 -110 -3 -21 -8 -54 -11 -73 -7 -41 -6 -253 1 -301 3 -19 7
-54 10 -78 15 -125 65 -297 125 -427 34 -75 119 -219 131 -223 5 -2 9 -8 9
-14 0 -8 20 -35 95 -127 24 -29 155 -160 182 -181 10 -8 39 -32 65 -52 25 -21
51 -38 57 -38 6 0 11 -4 11 -8 0 -8 91 -64 187 -114 101 -52 280 -113 393
-134 14 -3 32 -7 40 -9 30 -8 137 -17 240 -20 58 -2 110 -3 117 -4 22 -2 34
-40 38 -124 8 -135 17 -198 46 -311 73 -288 233 -530 464 -701 22 -17 42 -33
45 -36 11 -13 162 -100 231 -132 226 -108 421 -147 699 -142 96 2 184 5 195 8
11 3 45 8 75 12 242 31 495 137 685 286 57 45 192 184 237 244 48 65 125 192
130 216 2 8 6 16 9 19 10 8 67 171 85 240 17 69 19 80 33 180 9 68 7 343 -3
395 -10 48 -18 98 -21 120 -4 31 -45 155 -66 202 -10 24 -19 47 -19 51 0 5
-25 51 -56 103 -81 135 -175 243 -289 334 -27 22 -52 43 -55 46 -27 32 -291
176 -365 199 -22 7 -44 16 -50 20 -10 7 -200 57 -246 65 -13 2 -44 7 -69 11
-59 9 -351 10 -418 1 -45 -7 -93 -15 -177 -32 -39 -8 -181 -53 -234 -74 -103
-41 -236 -113 -349 -188 -107 -71 -200 -123 -226 -127 -6 -1 -16 -5 -22 -8
-17 -11 -93 -18 -194 -18 -340 0 -540 67 -705 236 -138 141 -208 326 -198 521
3 56 43 248 81 388 12 44 49 57 197 70 22 2 50 6 61 9 12 2 39 7 60 10 219 35
509 133 724 244 86 45 288 175 325 209 11 10 34 29 50 41 98 75 345 348 345
381 0 5 3 11 8 13 11 5 52 66 52 78 0 5 4 10 9 10 5 0 11 8 15 18 3 9 10 24
15 32 35 55 72 127 106 205 21 50 42 94 47 100 4 5 8 15 8 23 0 8 6 28 14 45
25 56 76 226 101 336 25 110 30 135 40 211 3 25 8 56 10 70 6 35 16 126 21
185 2 28 6 177 9 333 2 155 7 287 10 292 3 6 3 10 -2 10 -7 0 -9 151 -3 265 1
22 1 45 0 50 -4 25 -2 173 3 182 3 5 2 15 -3 22 -4 8 -4 26 0 42 5 15 6 30 2
33 -7 8 -7 210 1 223 3 5 2 15 -3 22 -4 8 -4 26 0 42 5 15 6 30 3 33 -6 5 -8
599 -3 621 1 6 1 15 0 20 -2 12 -2 328 1 341 1 5 1 14 -1 19 -6 33 -4 175 3
175 5 0 5 5 1 11 -8 14 -9 223 0 237 3 5 2 12 -1 16 -8 8 -6 184 3 197 3 5 2
9 -3 9 -4 0 -7 21 -5 47 2 27 3 55 3 63 -2 42 -2 177 -1 185 2 6 1 15 0 20 -1
6 -2 42 -1 80 0 39 0 102 0 140 0 39 -1 84 -2 100 -1 17 1 38 5 47 5 9 4 19
-1 22 -5 3 -5 21 -1 41 4 20 4 38 -1 41 -5 3 -6 10 -2 17 7 11 7 99 0 175 -8
84 73 77 -934 79 -953 2 -943 3 -955 -44 -2 -10 -4 -172 -4 -359 1 -312 3
-344 19 -361 16 -19 34 -20 393 -21 341 -1 378 -3 396 -18 18 -17 19 -57 15
-1683 -2 -916 -6 -1688 -10 -1716 -28 -199 -34 -234 -54 -310 -8 -33 -17 -70
-19 -83 -3 -12 -14 -48 -26 -80 -12 -31 -23 -63 -24 -70 -6 -35 -113 -235
-162 -302 -63 -86 -184 -210 -257 -261 -47 -33 -144 -92 -155 -95 -3 0 -27
-11 -55 -23 -44 -21 -172 -67 -185 -68 -3 -1 -23 -6 -45 -11 -22 -6 -57 -13
-79 -16 -21 -4 -41 -8 -45 -10 -13 -8 -150 -20 -296 -28 -20 -1 -251 12 -275
16 -14 2 -50 6 -80 10 -30 4 -71 11 -90 16 -19 5 -46 11 -60 14 -14 2 -63 16
-110 31 -303 97 -542 301 -686 585 -54 107 -105 246 -130 351 -14 57 -43 207
-48 244 -25 187 -23 99 -26 1866 -2 1694 -4 1620 45 1636 11 4 192 7 402 7
353 1 384 2 400 19 17 16 18 45 18 378 -1 344 -2 362 -20 375 -16 12 -169 14
-952 14 -917 0 -933 0 -953 -20z m5200 -7869 c175 -47 287 -120 385 -253 42
-56 103 -186 111 -237 3 -14 7 -32 10 -40 18 -51 25 -280 12 -371 -32 -217
-153 -385 -353 -491 -102 -54 -184 -76 -315 -84 -30 -2 -162 20 -207 34 -39
12 -147 66 -188 94 -51 35 -141 131 -177 188 -39 61 -82 164 -94 224 -9 44
-10 51 -14 63 -4 16 -1 190 5 251 11 123 43 222 103 325 36 62 150 186 171
186 6 0 11 4 11 9 0 7 92 52 165 80 92 35 284 46 375 22z"/>
</g>
</svg>
