<svg width="1920" height="1228" viewBox="0 0 1920 1228" fill="none" xmlns="http://www.w3.org/2000/svg">
<path fill-rule="evenodd" clip-rule="evenodd" d="M1920 239.332V1158.2C1864.63 1192.7 1792.3 1194.98 1696.22 1188.37C1342.96 1164.06 1017.96 1182.9 691.088 1201.85H691.086L691.072 1201.85C473.357 1214.47 254.811 1227.15 26.5274 1227.14C18.0314 1227.14 9.16852 1225.79 -0.000119821 1223.18L-0.00012207 0.836182C85.4971 11.9115 153.334 43.1296 227.778 77.3881L227.778 77.3884C389.366 151.75 582.081 240.436 1054.1 168.542C1330.82 126.394 1477.16 180.685 1595.25 224.495C1701.56 263.935 1784.97 294.881 1920 239.332Z" fill="#465678"/>
</svg>
