<svg width="725" height="450" viewBox="0 0 725 450" fill="none" xmlns="http://www.w3.org/2000/svg">
<g clip-path="url(#clip0)">
<path d="M602.565 141.103C603.988 154.626 600.963 167.794 584.769 170.641C582.989 188.434 571.244 197.509 553.448 194.662C543.483 211.032 527.289 215.125 510.027 204.626C495.434 214.947 481.376 212.1 472.656 197.331C455.928 201.779 444.36 194.128 441.691 177.224C424.073 174.733 415.709 162.811 419.446 145.374C404.142 136.121 400.761 121.352 411.26 105.872C400.939 98.7544 405.388 74.1993 416.955 72.4199C412.684 53.5587 421.404 39.8576 440.089 35.9431C442.581 18.6833 454.326 10.6761 471.588 14.7687C473.367 2.66903 487.604 -0.177943 495.434 8.54092C501.663 -3.55873 523.907 -2.84698 528.712 8.71885C537.788 -0.177943 549.355 2.84697 551.491 15.1245C568.575 10.8541 575.693 17.4377 578.363 34.3416C595.98 36.6548 604.344 48.7544 600.607 66.1922C615.734 74.5551 618.759 88.4342 608.793 103.203C619.471 104.093 617.691 138.612 602.565 141.103Z" fill="#0D1D3F"/>
<path d="M233.481 407.117C233.837 416.726 226.007 424.733 216.397 424.733H72.7848C70.6494 424.733 68.5139 424.377 66.5563 423.665C60.3278 421.352 55.8789 415.302 55.7009 408.363L53.3874 338.968L52.8536 319.929L52.4977 308.007L51.252 266.548H51.4299C51.7858 246.975 58.5482 229.004 69.7596 214.591C85.4198 194.128 109.8 180.783 137.384 179.893C164.433 179.003 188.991 190.213 205.719 208.719C218.532 222.776 226.896 240.925 228.676 261.032H228.854L229.744 289.68L229.922 296.797L230.633 318.683L230.989 327.58L231.523 344.306L233.481 407.117Z" fill="#E83838"/>
<path d="M52.8536 338.968C38.261 338.968 22.9567 335.231 11.9233 322.42C4.09315 313.345 -3.91495 296.619 1.95766 268.861C9.25393 235.231 37.9051 189.146 83.9962 167.616C93.6059 163.167 144.502 141.993 198.601 167.794C232.947 184.164 263.2 217.616 273.699 251.068C281.351 275.089 276.191 291.815 270.674 301.601C250.031 337.9 196.466 333.452 158.027 326.868C146.637 324.911 135.248 322.598 124.215 319.929C112.469 324.911 101.792 329.004 92.0043 332.028C84.708 334.164 69.2257 338.968 52.8536 338.968ZM142.366 217.438C125.46 217.438 112.469 223.132 110.334 224.021C85.7758 235.409 70.8273 259.253 64.9547 274.911C69.2257 273.843 74.5644 272.242 81.3268 269.751L88.979 245.374C98.9446 248.576 108.91 251.423 118.52 254.093C133.824 246.975 152.154 237.544 174.577 225.267C173.687 224.733 172.797 224.377 171.907 223.843C161.586 219.039 151.442 217.438 142.366 217.438Z" fill="#E83838"/>
<path d="M139.341 169.217C174.232 169.217 202.516 140.936 202.516 106.05C202.516 71.1635 174.232 42.8826 139.341 42.8826C104.45 42.8826 76.166 71.1635 76.166 106.05C76.166 140.936 104.45 169.217 139.341 169.217Z" fill="#0D1D3F"/>
<path d="M223.159 271.708C221.024 273.488 218.71 274.733 216.397 275.801L179.916 230.783C181.339 228.648 183.297 226.69 185.432 225.089C198.245 214.591 217.109 216.548 227.608 229.537C237.93 242.349 235.972 261.21 223.159 271.708Z" fill="#0D1D3F"/>
<path d="M102.326 241.103C104.283 243.061 105.885 245.196 107.131 247.331L66.2005 288.256C63.8871 287.011 61.7516 285.409 59.972 283.452C48.2268 271.708 48.2268 252.669 59.972 241.103C71.7172 229.359 90.5807 229.359 102.326 241.103Z" fill="#0D1D3F"/>
<path opacity="0.3" d="M231.345 338.79C206.965 338.434 206.965 341.993 161.763 338.79C140.409 337.367 116.918 327.224 101.08 317.972C92.3599 312.989 64.7764 289.858 66.2001 288.256C67.9797 286.477 74.5641 292.883 85.9534 300.89C91.2922 304.626 97.6986 308.719 104.995 312.456C160.518 340.569 230.811 327.224 230.811 327.224L231.345 338.79Z" fill="#0D1D3F"/>
<path opacity="0.3" d="M66.5561 423.487C60.3276 421.174 55.8786 415.124 55.7007 408.185L53.3872 338.968C68.6916 335.231 65.3104 336.299 65.3104 336.299L66.5561 423.487Z" fill="#0D1D3F"/>
<path d="M588.15 424.733H444.538C435.285 424.733 427.81 417.438 427.455 408.363L424.073 319.929L422.472 266.548H422.65C423.717 219.751 461.266 181.317 508.603 179.893C556.118 178.47 595.981 214.235 599.896 261.032H600.074L601.853 318.683L605.234 407.295C605.59 416.726 597.76 424.733 588.15 424.733Z" fill="white"/>
<path d="M416.243 432.029L353.958 429.893C355.56 382.74 363.39 336.477 377.093 292.705C394.532 236.655 408.413 192.349 453.792 168.327C486.359 151.068 536.187 144.84 573.914 169.929C604.167 190.214 612.175 221.53 618.047 244.306C622.318 261.21 625.344 271.708 631.928 275.801C640.648 281.139 658.444 278.648 680.511 269.395L704.891 326.69C662.537 344.662 627.301 345.552 599.896 329.182C570.889 311.744 563.592 282.918 557.72 259.787C552.737 240.569 549.356 228.47 539.39 221.708C524.62 211.922 499.172 214.769 483.155 223.31C461.267 234.876 452.725 260.142 436.708 311.388C424.607 349.822 417.667 390.392 416.243 432.029Z" fill="white"/>
<path d="M510.739 169.217C545.63 169.217 573.914 140.936 573.914 106.05C573.914 71.1635 545.63 42.8826 510.739 42.8826C475.848 42.8826 447.564 71.1635 447.564 106.05C447.564 140.936 475.848 169.217 510.739 169.217Z" fill="#8E9EC2"/>
<path d="M192.728 94.306C174.221 62.9893 124.926 58.185 124.926 58.185C124.926 58.185 107.131 66.726 96.4532 76.1566C79.0134 91.8149 79.7252 120.463 75.0983 119.929C72.251 119.573 71.1832 107.295 71.0053 104.982C69.2257 82.3843 77.5897 61.3879 77.5897 61.3879C77.5897 61.3879 72.251 65.3025 71.1832 64.5907C70.1155 63.701 72.6069 57.1174 77.0558 51.4235C85.2419 40.5694 96.6312 37.0107 95.7414 35.0534C95.0296 33.4519 88.0892 35.5872 87.9113 34.6975C87.7333 33.8078 96.6312 28.8256 107.843 27.9359C114.427 27.4021 114.961 28.6477 121.723 27.9359C126.884 27.2242 127.596 26.3345 137.384 23.6655C152.51 19.5729 154.467 20.6406 155.001 21.7082C155.713 22.9537 154.112 24.1993 154.645 25.8007C155.891 29.5373 165.679 26.8683 173.865 29.7153C187.568 34.6975 196.821 48.5765 195.576 50C194.864 50.7117 191.127 48.2206 190.593 48.7544C190.059 49.6441 197.355 54.0925 203.584 62.2776C209.101 69.7509 211.77 77.58 210.88 78.1139C210.168 78.6477 207.143 73.6655 205.719 74.3772C203.762 75.2669 207.855 84.6975 208.033 97.3309C208.033 105.16 206.609 116.37 203.584 116.726C200.737 116.904 199.669 106.228 192.728 94.306Z" fill="#8E9EC2"/>
<path d="M398.27 97.8648C423.184 141.281 416.955 203.025 393.287 213.701C389.016 215.658 386.702 214.769 372.11 212.811C372.11 212.811 332.247 207.829 288.47 209.253C249.141 210.498 246.294 217.972 236.684 212.1C212.482 197.331 211.058 139.502 235.082 99.4662C236.684 96.9751 272.275 39.6797 328.866 46.6192C372.11 52.1352 394.176 90.7473 398.27 97.8648Z" fill="#FF9C01"/>
<path d="M409.837 432.206C410.37 441.993 402.54 450 392.753 450H249.141C246.471 450 243.98 449.466 241.666 448.22C236.328 445.551 232.413 440.213 232.057 433.808L228.676 361.922L227.074 312.811L226.896 308.541H227.074C227.252 301.957 228.142 295.551 229.565 289.324C238.819 251.601 272.275 222.954 313.028 221.708C360.364 220.285 400.405 256.05 404.32 302.847H404.498L406.277 360.498L409.837 432.206Z" fill="#8E9EC2"/>
<path d="M416.599 439.502C433.111 439.502 446.496 426.118 446.496 409.609C446.496 393.099 433.111 379.715 416.599 379.715C400.087 379.715 386.702 393.099 386.702 409.609C386.702 426.118 400.087 439.502 416.599 439.502Z" fill="white"/>
<path d="M51.7856 354.27C68.2972 354.27 81.6825 340.887 81.6825 324.377C81.6825 307.868 68.2972 294.484 51.7856 294.484C35.274 294.484 21.8887 307.868 21.8887 324.377C21.8887 340.887 35.274 354.27 51.7856 354.27Z" fill="white"/>
<path d="M426.565 434.697L401.829 377.58C427.277 366.548 455.216 345.374 455.75 330.071C456.106 320.641 444.539 308.007 424.963 296.085C401.651 282.028 373.355 272.598 354.492 268.327C334.739 263.879 310.18 258.541 282.775 267.438C260.352 274.733 249.141 287.545 234.726 303.915C219.066 321.53 201.448 341.459 169.416 354.093C131.689 369.039 87.3773 367.616 37.7271 350L58.7261 291.281C93.6058 303.737 123.147 305.338 146.459 296.085C164.611 288.968 174.932 277.224 187.923 262.456C204.296 243.95 224.939 220.641 263.2 208.185C306.799 193.95 345.06 202.313 367.839 207.295C424.607 219.929 520.171 260.32 517.857 331.673C516.255 391.459 447.564 425.623 426.565 434.697Z" fill="#8E9EC2"/>
<path d="M315.341 211.388C350.232 211.388 378.516 183.107 378.516 148.221C378.516 113.334 350.232 85.0535 315.341 85.0535C280.45 85.0535 252.166 113.334 252.166 148.221C252.166 183.107 280.45 211.388 315.341 211.388Z" fill="white"/>
<path d="M234.015 143.416C235.26 147.687 239.353 158.897 243.09 158.719C245.582 158.541 245.76 153.381 248.251 148.399C256.081 132.562 280.995 133.808 307.333 117.438C312.672 114.057 320.146 108.719 327.62 100.534C335.984 112.455 345.238 119.751 351.823 124.199C361.966 130.961 368.907 132.74 374.245 140.569C381.542 151.245 377.449 161.032 379.228 161.21C382.965 161.744 406.812 124.377 387.414 95.7295C384.923 92.1708 375.135 77.58 355.026 73.1316C347.908 71.5302 341.501 71.7081 337.408 72.2419C335.806 70.1067 333.137 67.2597 329.222 65.1245C310.892 54.8042 279.394 64.2348 261.242 76.3345C233.659 94.4839 228.498 124.911 234.015 143.416Z" fill="#FF9C01"/>
<path d="M600.786 108.185C599.362 114.769 591.888 115.836 580.498 110.676C570.711 115.836 557.898 112.989 546.153 103.381C534.585 102.669 523.908 95.1958 517.857 83.6299C508.782 79.5374 503.443 72.42 503.265 64.4128C496.324 60.3203 494.189 55.8719 497.392 52.1353C487.249 38.7901 484.401 25.089 489.918 15.6584C491.342 9.07476 498.816 8.00714 510.205 13.1673C513.053 8.00714 519.281 8.71889 527.289 14.9466C531.916 11.3879 538.322 13.3452 544.551 20.4627C556.118 21.1744 566.796 28.6477 572.846 40.2136C585.303 47.6869 592.955 59.6086 593.311 71.7082C603.277 85.0534 606.302 98.7545 600.786 108.185Z" fill="#0D1D3F"/>
<path d="M429.234 91.2812C430.658 96.2634 436.708 96.6193 445.606 92.1709C453.614 95.5517 463.758 92.8827 472.834 85.2314C482.088 84.1638 490.274 78.114 494.723 69.2172C501.841 65.8364 505.934 60.1424 505.578 54.0926C510.917 50.7118 512.518 47.3311 509.849 44.662C517.323 34.1638 519.281 23.8435 514.476 17.0819C513.052 12.0997 507.002 11.7439 498.104 16.1923C495.612 12.4556 490.63 13.1673 484.401 18.3275C480.486 15.8364 475.503 17.6157 470.876 23.1318C461.623 24.1994 453.436 30.2492 448.987 39.146C439.378 45.3738 433.505 54.4485 433.861 63.5232C426.209 74.1994 424.429 84.5197 429.234 91.2812Z" fill="#0D1D3F"/>
<path opacity="0.3" d="M241.667 448.221C236.328 445.552 232.413 440.214 232.057 433.808L228.676 361.922L227.074 312.811C233.125 305.338 237.752 299.822 237.752 299.822L241.667 448.221Z" fill="#0D1D3F"/>
<path opacity="0.3" d="M554.338 245.374C554.338 245.374 558.965 270.463 570.177 293.95C576.049 306.228 580.142 314.769 589.396 322.776C600.785 332.562 613.242 335.587 621.606 337.723C629.259 339.68 641.894 341.637 657.554 339.68C629.081 335.765 626.945 335.231 626.945 335.231C604.167 329.36 589.752 312.989 585.659 308.363C576.583 298.043 572.134 287.9 565.728 273.666C565.906 273.488 562.524 266.192 554.338 245.374Z" fill="#0D1D3F"/>
<path d="M710.763 314.946C708.806 315.836 706.848 316.37 701.51 318.861L683.358 276.868C688.163 273.309 689.942 272.242 691.9 271.352C704.001 266.192 717.882 271.708 723.043 283.63C728.381 295.729 722.687 309.786 710.763 314.946Z" fill="#0D1D3F"/>
</g>
<defs>
<clipPath id="clip0">
<rect width="725" height="450" fill="white"/>
</clipPath>
</defs>
</svg>
