<svg width="307" height="331" viewBox="0 0 307 331" fill="none" xmlns="http://www.w3.org/2000/svg">
<g clip-path="url(#clip0)">
<path d="M304.994 191.682L222.86 219.291L245.663 244.574L176.198 254.2L192.561 313.969L160.468 318.412L160.257 256.316L100.398 264.567L90.6854 265.943L105.888 235.371L78.3336 234.101L19.3195 231.139L40.7503 207.761L0 169.89L47.2957 160.581L41.8061 132.971L102.932 154.869L59.0141 68.0195L101.559 72.0393L133.019 0L182.849 60.8261L222.754 45.3816L203.857 140.905L249.675 108.429L255.059 104.515L256.748 103.457L256.854 103.352V103.88L257.065 105.785L259.071 131.279L279.446 129.692L307 127.47L278.074 175.074L304.994 191.682Z" fill="#E83838"/>
<path d="M213.042 209.454V303.073C213.042 311.536 206.285 318.306 197.84 318.306H126.368C123.623 318.306 121.09 317.565 118.873 316.296C114.228 313.651 111.166 308.679 111.166 303.073V210.194C111.166 182.161 133.336 158.783 161.207 158.36C189.816 157.936 213.042 180.997 213.042 209.454Z" fill="#465678"/>
<path d="M280.607 91.821C280.607 93.5136 280.396 95.1004 279.868 96.5814C277.862 103.034 271.845 107.795 264.666 107.795C262.344 107.795 260.232 107.266 258.226 106.419C257.804 106.208 257.382 106.102 257.065 105.89C256.326 105.573 255.693 105.044 255.059 104.621L256.643 103.457C255.904 101.976 255.27 100.284 254.742 98.3797L250.203 98.697C249.253 96.5814 248.725 94.3599 248.725 91.9268C248.725 84.0988 254.426 77.5401 261.816 76.1649C262.766 75.9534 263.61 75.9534 264.561 75.9534C273.428 75.8476 280.607 83.0409 280.607 91.821Z" fill="white"/>
<path d="M87.8349 315.873C87.8349 324.124 81.2895 330.788 73.055 330.894C72.9494 330.894 72.8439 330.894 72.7383 330.894C64.3982 330.894 57.6417 324.124 57.6417 315.767C57.6417 309.949 60.9144 304.871 65.7706 302.438C67.882 301.38 70.2046 300.746 72.7383 300.746C81.0784 300.851 87.8349 307.622 87.8349 315.873Z" fill="white"/>
<path d="M279.446 129.692C276.49 145.665 269.734 161.533 255.904 172.958C240.702 185.546 223.071 187.768 196.467 191.047C183.904 192.634 174.825 192.74 167.435 192.845C157.512 192.951 152.972 193.057 146.427 196.336C142.521 198.346 134.497 203.106 123.518 218.339C120.034 223.205 115.6 229.976 111.166 238.65V238.756C106.838 247.324 103.248 256.104 100.398 264.673C94.0636 283.503 90.7909 301.909 89.2074 316.719C78.7558 315.555 68.4099 314.392 57.9584 313.228H57.7473C60.9144 284.243 67.9876 257.48 78.3336 234.101C83.8232 221.619 90.3686 210.194 97.7586 199.827C108.949 184.065 119.612 174.227 132.28 167.88C145.265 161.321 155.4 161.216 167.119 161.004C173.981 160.898 181.793 160.793 192.667 159.417C217.054 156.35 228.139 154.763 235.845 148.416C246.93 139.213 249.569 121.97 249.781 108.429C249.781 104.833 249.675 101.553 249.464 98.697C259.599 97.9565 269.839 97.3218 279.974 96.5813L281.135 96.4755C281.663 106.525 281.557 118.161 279.446 129.692Z" fill="#465678"/>
<path d="M157.934 169.89C180.381 169.89 198.579 151.656 198.579 129.163C198.579 106.67 180.381 88.4359 157.934 88.4359C135.487 88.4359 117.289 106.67 117.289 129.163C117.289 151.656 135.487 169.89 157.934 169.89Z" fill="white"/>
<path d="M116.022 83.7814C118.345 81.4541 120.245 82.7235 119.295 85.7913C122.357 84.7334 123.307 86.0028 121.195 88.5417C124.362 88.5417 124.679 89.8111 121.829 91.2921C124.89 92.7731 124.574 94.5714 121.195 95.2061C123.307 97.6392 122.568 98.697 119.612 97.7449C120.667 100.918 119.295 101.871 116.656 99.8606C116.339 103.14 114.65 103.457 113.066 100.495C111.694 103.352 110.322 103.034 110.005 99.8606C107.682 101.976 106.521 101.342 107.577 98.2739C104.198 99.1201 103.354 98.1681 105.465 95.2061C102.404 95.1003 101.876 92.8788 104.832 91.7152C101.981 90.2342 102.298 88.859 105.465 88.7532C103.248 86.6376 104.41 84.945 107.154 86.1086C106.099 82.8293 106.732 82.512 109.477 84.4161C109.266 81.2425 111.166 80.8194 112.644 83.5698C114.333 80.1847 115.178 80.3963 116.022 83.7814Z" fill="#8E9EC2"/>
<path d="M197.629 120.066C197.629 120.066 194.989 103.14 180.737 100.39C157.828 96.0524 139.037 106.948 129.958 122.075C126.791 127.259 124.996 131.384 123.729 134.77C120.667 143.338 122.251 146.512 120.034 146.406C118.45 146.3 116.972 142.598 113.911 135.087C113.066 132.971 112.433 131.384 111.8 129.163C109.899 122.604 109.899 117.209 109.899 114.565C110.005 108.218 110.11 97.9566 114.967 90.0227C115.178 89.7054 115.389 89.388 115.6 89.0706C124.89 75.5302 146.638 71.8278 160.468 75.9534C178.837 81.4542 184.221 84.8393 196.151 109.487C199.212 116.257 198.473 118.373 197.629 120.066Z" fill="#8E9EC2"/>
<path opacity="0.3" d="M117.923 304.765C118.028 309.208 118.556 313.017 118.873 316.402C114.228 313.757 111.166 308.785 111.166 303.179V238.65C114.122 232.726 117.606 226.908 121.406 221.196C120.456 225.639 117.711 239.602 117.5 244.997C116.761 269.539 116.972 275.357 117.923 304.765Z" fill="#0D1D3F"/>
<path opacity="0.3" d="M57.7473 315.979C57.7473 314.815 57.8528 313.863 57.9584 313.228C60.7032 313.546 63.5536 313.863 66.2985 314.18C65.5595 318.094 65.2428 323.066 68.0932 326.346C71.577 330.26 78.1224 329.519 78.1224 330.048C78.1224 330.577 71.4715 332.375 65.6651 329.202C61.02 326.557 57.7473 321.162 57.7473 315.979Z" fill="#0D1D3F"/>
<path opacity="0.3" d="M123.623 134.77C120.562 143.338 122.145 146.512 119.928 146.406C118.345 146.3 116.867 142.598 113.805 135.087C112.961 132.971 112.327 131.384 111.694 129.163C109.794 122.604 109.794 117.209 109.794 114.565C109.899 108.218 110.005 97.9565 114.861 90.0227C115.072 89.7053 115.283 89.388 115.494 89.0706C111.694 101.236 112.539 110.228 114.439 116.68C116.761 124.297 120.879 129.903 123.623 134.77Z" fill="#0D1D3F"/>
<path opacity="0.3" d="M254.742 98.2739L250.203 98.5913C249.253 96.4756 248.725 94.2541 248.725 91.821C248.725 83.993 254.426 77.4343 261.816 76.0591C259.071 79.0211 255.059 83.4641 254.109 90.1285C253.792 93.1962 254.109 95.9466 254.742 98.2739Z" fill="#0D1D3F"/>
</g>
<defs>
<clipPath id="clip0">
<rect width="307" height="331" fill="white"/>
</clipPath>
</defs>
</svg>
