<svg width="288" height="321" viewBox="0 0 288 321" fill="none" xmlns="http://www.w3.org/2000/svg">
<path d="M198.91 169.766V272.464L146.756 294.746L94.2726 274.339L89.3109 272.464V169.766C89.3109 164.471 90.0827 159.397 91.4058 154.543C98.0214 131.709 119.081 114.942 144 114.942C174.432 115.053 198.91 139.541 198.91 169.766Z" fill="#E83838"/>
<path opacity="0.3" d="M97.3599 241.798C95.9265 255.035 94.9341 265.845 94.2726 274.449L89.3109 272.574V169.876C89.3109 164.581 90.0827 159.507 91.4058 154.654C92.6187 153.109 93.9418 151.896 94.8239 152.227C97.2496 152.999 94.7136 162.816 94.8239 178.039C95.0444 195.689 98.5727 198.998 98.9035 217.199C99.2343 226.465 98.4625 232.422 97.3599 241.798Z" fill="#0D1D3F"/>
<path d="M79.4977 245.99C88.3884 245.99 95.5957 238.779 95.5957 229.885C95.5957 220.99 88.3884 213.779 79.4977 213.779C70.607 213.779 63.3997 220.99 63.3997 229.885C63.3997 238.779 70.607 245.99 79.4977 245.99Z" fill="#FF9C01"/>
<path d="M209.825 245.99C218.716 245.99 225.923 238.779 225.923 229.885C225.923 220.99 218.716 213.779 209.825 213.779C200.935 213.779 193.727 220.99 193.727 229.885C193.727 238.779 200.935 245.99 209.825 245.99Z" fill="#FF9C01"/>
<path d="M288 299.6L281.164 306.66C261.207 287.356 232.539 281.289 206.518 290.775C190.971 296.401 178.181 306.88 169.691 321L169.58 320.89H118.861V320.779L118.64 320.89C110.04 306.77 97.3599 296.401 81.8132 290.665C55.7917 281.289 27.2343 287.356 7.16692 306.66L0 299.269C0.992343 298.497 1.98469 297.725 3.08729 296.953L3.52833 294.857C6.06432 287.245 9.70291 278.31 15.3262 268.713C22.3828 265.183 28.9985 262.977 35.8346 261.433C42.8913 259.889 50.0582 259.116 57.2251 259.116C68.8025 259.116 80.2695 261.102 91.1853 265.183C109.047 271.692 124.704 283.164 136.282 298.387H152.049C163.626 283.164 179.173 271.692 197.145 265.183C208.061 261.212 219.528 259.116 231.106 259.116C238.273 259.116 245.55 259.889 252.606 261.433C258.671 262.757 264.515 264.742 270.799 267.61C277.084 278.2 281.054 288.128 283.7 296.291C285.023 297.283 286.567 298.387 288 299.6Z" fill="#0D1D3F"/>
<path d="M283.59 296.291C263.963 281.62 247.975 276.545 231.326 276.545C221.734 276.545 212.251 278.2 203.1 281.509C188.545 286.804 176.196 295.739 166.824 307.653L164.729 311.072H123.712L121.397 307.763C112.024 295.849 99.6753 286.804 85.121 281.509C75.9694 278.2 66.487 276.545 56.8943 276.545C39.804 276.545 23.4854 281.84 2.86676 297.063L3.3078 294.967C5.84379 287.356 9.48238 278.421 15.1057 268.824C15.9877 267.39 16.8698 265.845 17.7519 264.411C20.1776 260.661 22.4931 257.241 24.9188 254.153C27.6753 253.27 30.5421 252.498 33.4089 251.946C53.6968 247.424 74.7565 248.858 94.3828 255.918C114.119 263.088 131.32 275.884 144 292.43C156.57 275.884 173.881 263.088 193.617 255.918C213.243 248.747 234.303 247.424 254.591 251.946C256.686 252.388 258.781 252.939 260.876 253.491C263.412 256.8 266.058 260.44 268.594 264.411C269.256 265.514 270.028 266.618 270.579 267.721C277.084 278.2 281.054 288.128 283.59 296.291Z" fill="#8E9EC2"/>
<path d="M67.1486 240.915C63.6202 237.717 33.2986 208.154 41.1271 170.979C49.3966 131.93 91.6264 118.803 105.519 114.611C136.723 105.014 163.075 112.074 171.786 114.391C230.003 130.055 245.44 157.742 248.086 178.26C252.386 211.573 225.813 237.937 222.836 240.805L200.123 216.758C204.974 212.125 217.213 196.902 215.338 182.452C213.464 167.67 194.94 154.764 163.296 146.27C156.239 144.395 137.384 139.321 115.332 146.049C105.078 149.248 77.7336 157.632 73.5437 177.708C69.3538 197.343 89.5314 216.427 89.7519 216.537L67.1486 240.915Z" fill="#E83838"/>
<path d="M144.11 114.942C169.382 114.942 189.868 94.4466 189.868 69.1639C189.868 43.8812 169.382 23.3856 144.11 23.3856C118.839 23.3856 98.3522 43.8812 98.3522 69.1639C98.3522 94.4466 118.839 114.942 144.11 114.942Z" fill="#FF9C01"/>
<path d="M196.263 67.7299C195.381 71.1495 192.735 80.4155 190.199 80.1948C188.545 80.0845 188.435 75.7825 186.781 71.701C181.489 58.7948 164.949 59.6773 147.528 46.3299C144 43.5722 139.038 39.2701 133.966 32.5412C128.343 42.2485 122.279 48.2052 117.758 51.9557C111.032 57.4711 106.401 59.0155 102.873 65.3031C97.9112 74.0175 100.778 81.9598 99.4548 82.1804C97.0291 82.6217 81.1516 52.066 94.0521 28.6804C95.706 25.7021 102.211 13.7887 115.663 10.2588C120.404 8.93505 124.594 9.15567 127.461 9.4866C128.564 7.72165 130.328 5.51547 132.864 3.64021C145.103 -4.85361 166.052 2.97835 178.07 12.7959C196.594 27.7979 199.902 52.6175 196.263 67.7299Z" fill="#0D1D3F"/>
<g opacity="0.3">
<g opacity="0.3">
<path opacity="0.3" d="M26.1317 278.2C39.363 270.92 54.6891 267.831 69.6845 269.265C83.5773 270.589 97.0291 275.994 108.165 284.488C114.34 289.231 119.743 294.857 124.153 301.255C125.366 303.02 128.233 301.365 127.02 299.6C118.861 287.797 107.394 278.31 94.2726 272.464C80.1593 266.176 64.6126 264.301 49.3966 266.838C40.6861 268.272 32.196 271.251 24.4778 275.442C22.6034 276.325 24.2573 279.193 26.1317 278.2Z" fill="#0D1D3F"/>
</g>
</g>
<g opacity="0.3">
<g opacity="0.3">
<path opacity="0.3" d="M44.1041 262.095C66.928 256.579 92.0674 262.757 110.26 277.538C115.443 281.73 119.963 286.583 123.822 291.989C125.035 293.754 127.902 292.099 126.689 290.334C112.466 270.147 88.5391 257.793 64.0613 256.8C57.1149 256.579 50.0582 257.241 43.3323 258.896C41.1271 259.447 42.0092 262.646 44.1041 262.095Z" fill="#0D1D3F"/>
</g>
</g>
<g opacity="0.3">
<g opacity="0.3">
<path opacity="0.3" d="M164.729 295.96C182.26 280.958 205.194 272.684 228.239 272.574C234.744 272.574 241.139 273.126 247.424 274.449C249.519 274.891 250.401 271.692 248.306 271.25C224.821 266.507 199.792 270.478 178.842 282.061C172.888 285.37 167.375 289.231 162.303 293.643C160.76 295.077 163.185 297.394 164.729 295.96Z" fill="#0D1D3F"/>
</g>
</g>
<g opacity="0.3">
<g opacity="0.3">
<path opacity="0.3" d="M164.729 286.914C179.283 272.023 199.351 262.757 220.19 261.212C226.144 260.771 231.988 260.882 237.942 261.654C238.824 261.764 239.596 260.771 239.596 259.999C239.596 259.006 238.824 258.455 237.942 258.344C216.551 255.587 194.279 260.992 176.417 272.905C171.345 276.325 166.714 280.186 162.413 284.488C160.87 286.032 163.296 288.459 164.729 286.914Z" fill="#0D1D3F"/>
</g>
</g>
</svg>
