<svg width="288" height="365" viewBox="0 0 288 365" fill="none" xmlns="http://www.w3.org/2000/svg">
<g clip-path="url(#clip0)">
<path d="M226.1 93.5H31.1V288.5H226.1V93.5Z" fill="#465678"/>
<path d="M196.9 135.8C195.3 146.8 205.3 161.9 208.1 181.2C209 187.5 200.6 215.7 177.6 215.8C171.2 215.8 127.1 208.5 99.5 204.5C87.3 202.7 77.9 188.1 89.5 164.8C94.6 154.5 106.4 135.2 108.2 122.9C111.8 98.4 134.5 81.4 159 85C183.5 88.6 200.4 111.3 196.9 135.8Z" fill="#E83838"/>
<path d="M221 0H36.2C28.5 0 22.2 6.2 22.2 14V351C22.2 358.7 28.4 365 36.2 365H221C228.7 365 235 358.8 235 351V14C234.9 6.2 228.7 0 221 0ZM225.8 322.2H31.3V42.6H225.8V322.2Z" fill="#8E9EC2"/>
<path d="M190.5 209.2L188.4 236L184.3 288.4H94.7L99.2 231.2L101.4 202.2H101.5C104.6 178.8 125.5 161.7 149.3 163.5C173 165.5 191 185.6 190.5 209.2Z" fill="#FF9C01"/>
<path d="M152.1 167.8C169.663 167.8 183.9 153.563 183.9 136C183.9 118.437 169.663 104.2 152.1 104.2C134.537 104.2 120.3 118.437 120.3 136C120.3 153.563 134.537 167.8 152.1 167.8Z" fill="#0D1D3F"/>
<path d="M111.2 133.6C111.8 135.7 113.9 141.4 115.8 141.3C117.1 141.2 117.2 138.6 118.4 136.1C122.4 128.2 134.9 128.7 148.1 120.5C150.8 118.8 154.6 116.1 158.3 112C162.5 118 167.1 121.7 170.5 123.9C175.6 127.3 179.1 128.2 181.8 132.1C185.5 137.4 183.4 142.4 184.3 142.5C186.1 142.7 198.2 124 188.4 109.5C187.2 107.7 182.2 100.3 172.1 98.1C168.5 97.3 165.3 97.4 163.2 97.6C162.4 96.5 161.1 95.1 159.1 94C149.9 88.8 134 93.6 124.9 99.6C111 109 108.5 124.3 111.2 133.6Z" fill="#E83838"/>
<path d="M272.1 224.8C280.44 224.8 287.2 218.039 287.2 209.7C287.2 201.36 280.44 194.6 272.1 194.6C263.761 194.6 257 201.36 257 209.7C257 218.039 263.761 224.8 272.1 224.8Z" fill="#0D1D3F"/>
<path d="M15.1 240.7C23.4395 240.7 30.2 233.94 30.2 225.6C30.2 217.261 23.4395 210.5 15.1 210.5C6.7605 210.5 0 217.261 0 225.6C0 233.94 6.7605 240.7 15.1 240.7Z" fill="#0D1D3F"/>
<path d="M279.3 223.6C258.2 243.2 239.7 253.1 223.3 253.6C222.9 253.6 222.5 253.6 222 253.6C217.7 253.6 213.5 252.9 209.4 251.6C197.3 247.7 190 239.1 184.2 230.2C182.6 227.8 181.1 225.3 179.7 223C173.4 212.7 168 203.8 157 200.1C150.9 198 144.2 197.8 137 199.3C125.6 201.7 119.9 208.4 112 217.7C104.3 226.7 95.6 237 80.5 243.4C61.3 251.5 37.8 250.4 10.6 239.9L21.4 211.9C41.1 219.5 57 220.7 68.8 215.8C77.3 212.2 82.8 205.8 89.1 198.3C98.1 187.7 109.3 174.6 130.6 170C146.2 166.6 158.8 169 166.5 171.7C187.9 178.9 197.9 195.4 205.2 207.5C210.5 216.3 214 221.7 218.6 223.2C226.5 225.8 241.5 217.7 258.8 201.7L279.3 223.6Z" fill="#FF9C01"/>
<path d="M128.6 356.9C136.222 356.9 142.4 350.722 142.4 343.1C142.4 335.479 136.222 329.3 128.6 329.3C120.978 329.3 114.8 335.479 114.8 343.1C114.8 350.722 120.978 356.9 128.6 356.9Z" fill="white"/>
<path d="M51.6 88.9C57.8408 88.9 62.9 83.8408 62.9 77.6C62.9 71.3592 57.8408 66.3 51.6 66.3C45.3592 66.3 40.3 71.3592 40.3 77.6C40.3 83.8408 45.3592 88.9 51.6 88.9Z" fill="#8E9EC2"/>
<path d="M112 73H69.2V82.1H112V73Z" fill="#8E9EC2"/>
<path d="M56 295.1C54 294.6 52 295.2 50.6 296.5C50.5 296.6 50.5 296.6 50.4 296.7C50.2 296.9 50.1 297 50 297.2C49.8 297.4 49.6 297.7 49.5 297.9C49.3 297.6 49.2 297.4 49 297.1C48.8 296.9 48.7 296.7 48.5 296.5L48.4 296.4C47.8 295.8 47.1 295.4 46.4 295.1C42.3 293.7 38.5 296.8 38.5 300.7C38.5 302.2 39 303.5 40 304.6L48.8 313.4C49.2 313.8 49.8 313.8 50.2 313.4L58.8 304.8C60.1 303.5 60.7 301.8 60.5 300C60.1 297.8 58.3 295.7 56 295.1Z" fill="#E83838"/>
<path d="M87.6 309.8C89 308 89.7 305.6 89.4 303.1C88.9 299 85.6 295.7 81.5 295.2C75.5 294.5 70.5 299.4 71.2 305.4C71.7 309.5 75 312.8 79 313.3C81.2 313.6 83.3 313.1 85 312L89 313.4C89.1 313.5 89.3 313.3 89.2 313.2L87.6 309.8Z" stroke="#8E9EC2" stroke-width="2" stroke-miterlimit="10"/>
<path d="M110.8 313.4L107.2 304L100.7 296C100.6 295.9 100.7 295.7 100.8 295.7H121.1C121.2 295.7 121.3 295.8 121.2 295.9L111 313.4C111 313.5 110.9 313.5 110.8 313.4Z" stroke="#8E9EC2" stroke-width="2" stroke-miterlimit="10"/>
<path d="M121.4 295.6L107.2 303.9" stroke="#8E9EC2" stroke-width="2" stroke-miterlimit="10"/>
<path d="M215.7 313L208.2 305.5C208.1 305.4 207.9 305.4 207.8 305.5L200.3 313C200.1 313.2 199.8 313.1 199.8 312.8L199.9 296C199.9 295.8 200 295.7 200.2 295.7H216C216.2 295.7 216.3 295.8 216.3 296L216.2 312.8C216.3 313 215.9 313.2 215.7 313Z" stroke="#8E9EC2" stroke-width="2" stroke-miterlimit="10"/>
<path d="M110.2 26.5C111.912 26.5 113.3 25.1121 113.3 23.4C113.3 21.6879 111.912 20.3 110.2 20.3C108.488 20.3 107.1 21.6879 107.1 23.4C107.1 25.1121 108.488 26.5 110.2 26.5Z" fill="white"/>
<path d="M146.9 26.5H120.4C118.7 26.5 117.3 25.1 117.3 23.4C117.3 21.7 118.7 20.3 120.4 20.3H146.9C148.6 20.3 150 21.7 150 23.4C150 25.1 148.6 26.5 146.9 26.5Z" fill="white"/>
<g opacity="0.3">
<path opacity="0.3" d="M101 229.3C101 229.3 100.4 249.7 99.2 288.5H94.7L99.2 231.3C99.7 230.7 100.3 230 101 229.3Z" fill="#0D1D3F"/>
</g>
<path opacity="0.3" d="M223.2 253.6C222.8 253.6 222.4 253.6 221.9 253.6C217.6 253.6 213.4 252.9 209.3 251.6C197.2 247.7 189.9 239.1 184.1 230.2C186.1 229.1 190.5 237.6 199.5 244.2C210.3 252.1 220.6 252.1 223.2 253.6Z" fill="#0D1D3F"/>
</g>
<defs>
<clipPath id="clip0">
<rect width="287.2" height="364.9" fill="white"/>
</clipPath>
</defs>
</svg>
