<svg width="782" height="832" viewBox="0 0 782 832" fill="none" xmlns="http://www.w3.org/2000/svg">
<path d="M545.047 143.821V369.747C545.047 383.021 534.239 393.832 520.968 393.832H472.538C472.265 393.832 472.128 393.832 471.854 393.832C458.857 393.421 448.46 382.884 448.46 369.747V143.821C448.46 130.547 459.268 119.737 472.538 119.737H520.968C534.239 119.737 545.047 130.547 545.047 143.821Z" fill="#E83838"/>
<path d="M633.699 233.316V281.758C633.699 295.031 622.891 305.842 609.621 305.842H383.749C370.479 305.842 359.671 295.031 359.671 281.758V233.316C359.671 220.042 370.479 209.231 383.749 209.231H609.621C622.891 209.231 633.699 219.905 633.699 233.316Z" fill="#E83838"/>
<path d="M372.394 82.379C358.439 127.811 242.152 263.968 206.992 267.116C158.698 271.632 161.435 249.053 116.014 253.158C71.5511 257.263 58.8279 200.474 92.6197 174.474C118.75 154.358 113.004 99.0737 168.001 86.2106C204.393 77.7264 207.266 66.3685 226.556 42.8316C244.067 21.2106 262.263 5.47376 296.055 2.46324C341.886 -1.77887 384.023 44.7474 372.394 82.379Z" fill="#0D1D3F"/>
<path d="M413.026 585.137L368.153 785.2C358.576 823.789 312.608 808.874 312.472 774.663L320.817 578.568C320.543 577.474 320.27 576.516 319.996 575.421L298.791 511.789L293.729 496.737L293.318 495.505L270.882 428.453C266.23 406.695 292.224 379.189 315.755 370.158C318.218 369.2 320.68 368.379 323.143 367.968C348.316 362.632 372.804 377.684 378.003 401.768L410.974 555.853C411.248 557.221 411.521 558.589 411.658 559.958V560.095C414.531 568.305 414.805 576.926 413.026 585.137Z" fill="#FF9C01"/>
<path d="M511.392 349.221L393.873 316.79L358.439 220.863C351.873 203.074 332.035 193.905 314.25 200.474C296.465 207.042 287.299 226.884 293.866 244.674L343.801 350.179C345.853 355.79 349.273 360.579 353.514 364.137C358.303 368.653 364.596 371.937 371.71 373.032L505.783 384.937C529.04 384.39 534.239 356.611 511.392 349.221Z" fill="#8E9EC2"/>
<path d="M486.219 336.768L485.261 341.968L478.147 382.474L477.463 386.305L477.326 387.4L376.635 378.505C375.814 378.368 374.993 378.231 374.173 377.958C367.058 376.316 360.765 372.895 355.84 368.242C351.325 364.274 347.632 359.347 345.306 353.463C345.032 353.052 344.895 352.505 344.759 352.095L344.075 350.589L287.162 230.579C279.638 210.052 290.172 187.2 310.693 179.674C331.215 172.147 354.062 182.684 361.586 203.21L402.355 313.779L486.219 336.768Z" fill="white"/>
<path d="M322.459 410.389L306.999 456.505L293.592 496.874L288.941 510.695V510.832L272.523 559.958C265.273 578.432 252.823 586.095 247.077 588.832L67.4468 676.411C35.5703 692.011 28.0458 639.053 45.147 625.779L186.06 517.4L215.611 378.505C223.409 355.105 267.325 344.979 291.95 353.189C301.801 356.474 310.009 362.632 315.618 370.295C324.237 381.653 327.247 396.432 322.459 410.389Z" fill="#FF9C01"/>
<path d="M298.654 156.958C252.413 155.316 223.956 190.347 222.315 236.6L206.855 388.084L374.309 393.831L372.12 245.358C373.762 199.105 344.895 158.463 298.654 156.958Z" fill="white"/>
<path d="M364.185 118.095C347.495 170.642 306.726 175.432 278.68 161.337C245.983 144.779 226.419 112.895 237.5 77.8631C248.582 42.8315 285.931 23.5367 320.954 34.621C355.977 45.7052 375.267 83.0631 364.185 118.095Z" fill="#8E9EC2"/>
<path d="M356.29 370.444L278.487 279.268L166.314 375.036L244.117 466.211L356.29 370.444Z" fill="#0D1D3F"/>
<path d="M283.742 435.979L232.712 325.137L283.331 236.19C292.771 219.632 287.025 198.695 270.471 189.253C253.917 179.811 232.986 185.558 223.546 202.116L175.115 308.305C172.106 313.505 170.738 319.116 170.601 324.726C170.19 331.432 171.832 338.137 175.526 344.295L252.823 454.59C268.146 472.105 292.771 458.147 283.742 435.979Z" fill="#8E9EC2"/>
<path d="M341.475 33.1159C349 51.1791 312.882 84.0212 279.227 98.8001C271.292 102.358 236.269 117.684 226.145 106.463C213.422 92.3686 238.321 35.0317 282.921 22.1686C305.221 15.6001 335.729 19.2949 341.475 33.1159Z" fill="#0D1D3F"/>
<path d="M297.286 228.526C294.276 234.411 290.719 240.021 287.572 245.769C277.996 262.463 268.556 279.295 258.979 295.99C252.413 307.621 245.709 319.39 239.142 331.021C251.181 357.295 263.357 383.705 275.533 409.979L260.347 418.874L231.07 435.979L172.927 353.053C168.685 345.937 166.907 338.137 167.317 330.474C167.454 324.042 169.096 317.474 172.516 311.59L228.334 189.253C239.142 170.232 263.357 163.526 282.374 174.337C285.247 175.979 287.709 177.895 289.625 179.674C291.54 181.453 293.045 183.232 294.139 184.6C295.097 185.695 295.644 186.653 296.055 187.2C299.338 192.4 300.843 197.874 301.39 203.074C302.895 215.937 298.107 226.884 297.286 228.526Z" fill="white"/>
<path d="M390.59 788.621C374.72 781.505 324.648 767.821 324.648 767.821C310.967 764.811 297.286 774.253 293.866 789.032C290.582 803.811 298.928 818.316 312.608 821.326C312.608 821.326 363.638 829.947 380.876 831.726C409.606 834.874 418.225 800.937 390.59 788.621Z" fill="#0D1D3F"/>
<path d="M77.0234 698.305C72.5088 681.611 51.577 633.99 51.577 633.99C45.2838 621.4 29.2771 616.747 15.733 623.59C2.18894 630.295 -3.83065 646.032 2.46256 658.484C2.46256 658.484 28.0458 703.505 37.4857 718.011C53.2187 742.232 84.8216 727.589 77.0234 698.305Z" fill="#0D1D3F"/>
<path opacity="0.3" d="M478.147 383.295L477.6 386.716C477.6 387.126 477.19 387.4 476.779 387.4L376.909 378.505C376.088 378.369 375.267 378.232 374.446 377.958L374.309 373.169L373.078 293.663C373.078 292.705 374.446 292.569 374.583 293.526C380.603 344.295 380.603 336.358 384.16 350.316C392.368 382.2 448.049 376.863 477.6 382.2C477.874 382.474 478.147 382.884 478.147 383.295Z" fill="#0D1D3F"/>
<path opacity="0.3" d="M292.634 236.737C283.058 252.884 266.23 282.442 258.979 295.853C253.781 305.295 247.214 317.2 239.142 330.884C251.181 357.158 263.357 383.569 275.533 409.842L260.347 418.737L228.881 339.369C227.513 335.811 227.924 331.842 229.976 328.558C242.562 309.263 280.732 251.379 291.54 235.369C294.002 231.674 294.139 234.137 292.634 236.737Z" fill="#0D1D3F"/>
<path opacity="0.3" d="M306.589 455.274C306.999 454.179 308.641 454.726 308.367 455.821C306.862 461.842 305.494 468.274 304.126 474.842C301.527 487.979 299.748 500.432 298.517 511.926L293.455 496.874L288.804 510.695C290.172 505.768 291.54 500.705 293.045 495.642C297.423 481.411 301.937 468 306.589 455.274Z" fill="#0D1D3F"/>
<path d="M614.272 21.3473C618.73 21.3473 622.344 17.7326 622.344 13.2736C622.344 8.81466 618.73 5.19995 614.272 5.19995C609.814 5.19995 606.201 8.81466 606.201 13.2736C606.201 17.7326 609.814 21.3473 614.272 21.3473Z" fill="#8E9EC2"/>
<path d="M653.81 39.821C658.268 39.821 661.882 36.2062 661.882 31.7473C661.882 27.2883 658.268 23.6736 653.81 23.6736C649.352 23.6736 645.738 27.2883 645.738 31.7473C645.738 36.2062 649.352 39.821 653.81 39.821Z" fill="#8E9EC2"/>
<path d="M614.272 108.516C607.842 108.516 601.275 107.147 594.982 104.137C572.682 93.4632 563.242 66.6421 573.777 44.3368C573.914 44.2 573.914 43.9263 574.05 43.7895L574.187 43.5158L595.119 0L615.914 9.85263L612.904 16.0105L598.266 9.03158L580.07 47.3474C571.041 66.2316 579.112 88.9474 597.992 97.979C616.872 107.011 639.582 98.9368 648.611 80.0526L648.885 79.3684L666.807 41.8737L652.168 34.8947L655.315 28.7368L676.11 38.5895L655.178 82.379C655.041 82.5158 655.041 82.7895 654.904 82.9263C647.243 99.0737 631.1 108.516 614.272 108.516Z" fill="#8E9EC2"/>
<path d="M596.487 109.2C600.945 109.2 604.559 105.585 604.559 101.126C604.559 96.6674 600.945 93.0527 596.487 93.0527C592.029 93.0527 588.415 96.6674 588.415 101.126C588.415 105.585 592.029 109.2 596.487 109.2Z" fill="#8E9EC2"/>
<path d="M603.601 162.979C600.728 162.979 597.718 162.432 594.298 161.2C584.858 157.642 578.155 149.842 576.103 140.126C573.366 126.716 579.933 111.526 594.845 97.2947L599.634 102.221C586.5 114.81 580.617 127.81 582.806 138.758C584.311 146.147 589.51 152.168 596.624 154.905C606.064 158.463 611.399 154.768 618.924 149.705C627.269 144.095 637.53 137.116 655.725 139.989L654.631 146.695C639.035 144.368 630.689 149.979 622.618 155.316C617.145 159.147 611.262 162.979 603.601 162.979Z" fill="#8E9EC2"/>
<path d="M661.471 159.011C659.556 159.011 657.641 158.6 655.862 157.779C652.716 156.274 650.39 153.674 649.295 150.39C648.201 147.105 648.338 143.684 649.843 140.537C651.347 137.39 653.947 135.063 657.23 133.968C660.514 132.874 663.934 133.011 667.08 134.516C670.227 136.021 672.553 138.621 673.647 141.905C674.742 145.19 674.605 148.611 673.1 151.758C671.595 154.905 668.996 157.232 665.712 158.326C664.344 158.737 662.976 159.011 661.471 159.011ZM661.471 139.99C660.787 139.99 660.103 140.126 659.419 140.4C657.914 140.947 656.683 142.042 655.999 143.547C655.315 145.053 655.178 146.695 655.725 148.2C656.273 149.705 657.367 150.937 658.872 151.621C660.377 152.305 662.019 152.442 663.523 151.895C665.028 151.347 666.26 150.253 666.944 148.747C667.628 147.242 667.765 145.6 667.217 144.095C666.67 142.59 665.576 141.358 664.071 140.674C663.25 140.126 662.429 139.99 661.471 139.99Z" fill="#8E9EC2"/>
<path d="M724.403 292.568L707.166 276.147C697.589 267.116 697.315 251.926 706.345 242.484C715.374 232.905 730.56 232.632 740 241.663L757.238 258.084L724.403 292.568Z" fill="white"/>
<path d="M741.778 308.989L724.54 292.568L757.374 258.084L774.612 274.505C784.189 283.537 784.599 298.726 775.433 308.168C766.404 317.747 751.218 318.158 741.778 308.989Z" fill="#E83838"/>
<path d="M576.239 535.053L519.874 461.295C519.19 460.474 519.464 459.379 520.284 458.695L523.705 456.095C524.526 455.41 525.62 455.684 526.304 456.505L582.669 530.263C583.353 531.084 583.08 532.179 582.259 532.863L578.839 535.463C578.018 536.01 576.787 535.874 576.239 535.053Z" fill="#0D1D3F"/>
<path d="M558.889 509.194L540.192 484.735L513.022 505.514L531.719 529.973L558.889 509.194Z" fill="#0D1D3F"/>
<path d="M571.725 515.895L537.112 470.737L623.575 404.642C626.585 402.316 630.963 402.863 633.152 405.874L659.282 440.084C661.608 443.095 661.061 447.474 658.051 449.663L571.725 515.895Z" fill="#8E9EC2"/>
<path d="M529.451 544.631L498.395 503.989C497.437 502.758 497.711 500.979 498.942 500.021L504.141 496.053C505.372 495.095 507.151 495.368 508.108 496.6L539.164 537.242C540.122 538.474 539.848 540.253 538.617 541.21L533.418 545.179C532.187 546.137 530.408 545.863 529.451 544.631Z" fill="#0D1D3F"/>
<path d="M686.918 393.968L660.787 413.947C660.514 414.221 659.966 414.084 659.693 413.81L658.598 412.442C658.325 412.168 658.461 411.621 658.735 411.347L684.866 391.368C685.139 391.095 685.686 391.232 685.96 391.505L687.055 392.874C687.328 393.284 687.328 393.695 686.918 393.968Z" fill="#0D1D3F"/>
<path d="M648.097 457.435L630.813 434.823L628.313 436.735L645.597 459.346L648.097 457.435Z" fill="white"/>
<path d="M635.121 467.545L625.565 455.043L623.065 456.955L632.621 469.456L635.121 467.545Z" fill="white"/>
<path d="M621.663 477.753L604.379 455.141L601.879 457.053L619.163 479.664L621.663 477.753Z" fill="white"/>
<path d="M608.604 487.754L599.048 475.252L596.548 477.164L606.104 489.666L608.604 487.754Z" fill="white"/>
<path d="M596.726 496.819L579.442 474.208L576.942 476.12L594.227 498.731L596.726 496.819Z" fill="white"/>
<path d="M583.558 506.904L574.002 494.402L571.503 496.314L581.059 508.815L583.558 506.904Z" fill="white"/>
<path d="M653.263 436.116L635.614 412.989L650.527 401.495C653.536 399.168 657.777 399.853 659.966 402.726L669.406 415.179C671.732 418.189 671.048 422.432 668.175 424.621L653.263 436.116Z" fill="#8E9EC2"/>
<path d="M720.846 307.074L733.296 302.695C740.136 300.232 747.661 303.926 750.124 310.768C752.586 317.61 748.892 325.137 742.052 327.6L729.602 331.979L720.846 307.074Z" fill="white"/>
<path d="M708.397 311.453L720.846 307.074L729.602 331.979L717.153 336.358C710.312 338.821 702.788 335.126 700.325 328.284C697.999 321.442 701.556 313.916 708.397 311.453Z" fill="#E83838"/>
</svg>
