<svg width="1920" height="1503" viewBox="0 0 1920 1503" fill="#FEC63D" xmlns="http://www.w3.org/2000/svg">
<path d="M1485.89 1295.2C1717.89 1431.2 2117.89 1523.2 2117.89 1523.2L1951.89 626.171C1951.89 626.171 2065 71.3931 1909 287.197C1753 503 1765 350.803 1509 327C1253 303.197 1253 386.803 1033 355C813 323.197 760.111 119 441 38.9999C121.889 -41.0001 14.7778 11.3931 -18.1111 123.196C-51 235 -146.111 1187.2 -18.1111 1324.96C109.889 1462.72 269.889 1143.2 573.889 1091.2C877.889 1039.2 1253.89 1159.2 1485.89 1295.2Z" fill="#465678"/>
</svg>
