<svg width="480" height="358" viewBox="0 0 480 358" fill="none" xmlns="http://www.w3.org/2000/svg">
<g filter="url(#filter0_d)">
<path d="M0 44C0 19.6995 19.6995 0 44 0H426C450.301 0 470 19.6995 470 44V306C470 330.301 450.301 350 426 350H44C19.6995 350 0 330.301 0 306V44Z" fill="#0D1D3F"/>
<path d="M0 44C0 19.6995 19.6995 0 44 0H426C450.301 0 470 19.6995 470 44V306C470 330.301 450.301 350 426 350H44C19.6995 350 0 330.301 0 306V44Z" fill="#0D1D3F"/>
</g>
<defs>
<filter id="filter0_d" x="0" y="0" width="480" height="358" filterUnits="userSpaceOnUse" color-interpolation-filters="sRGB">
<feFlood flood-opacity="0" result="BackgroundImageFix"/>
<feColorMatrix in="SourceAlpha" type="matrix" values="0 0 0 0 0 0 0 0 0 0 0 0 0 0 0 0 0 0 127 0" result="hardAlpha"/>
<feOffset dx="6" dy="4"/>
<feGaussianBlur stdDeviation="2"/>
<feColorMatrix type="matrix" values="0 0 0 0 0 0 0 0 0 0 0 0 0 0 0 0 0 0 0.25 0"/>
<feBlend mode="normal" in2="BackgroundImageFix" result="effect1_dropShadow"/>
<feBlend mode="normal" in="SourceGraphic" in2="effect1_dropShadow" result="shape"/>
</filter>
</defs>
</svg>
