<svg width="397" height="382" viewBox="0 0 397 382" fill="none" xmlns="http://www.w3.org/2000/svg">
<g clip-path="url(#clip0)">
<path d="M324 293.8H44C19.7 293.8 0 274.1 0 249.8V43.9C0 19.7 19.7 0 43.9 0H323.9C348.2 0 367.8 19.7 367.8 43.9V249.8C367.9 274.1 348.2 293.8 324 293.8Z" fill="#8E9EC2"/>
<path d="M193.1 265.3H300.1C302.7 265.3 304.8 267.4 304.8 270V377C304.8 381.2 299.8 383.2 296.8 380.3C261.1 344.6 225.5 309 189.8 273.3C186.9 270.4 189 265.3 193.1 265.3Z" fill="#8E9EC2"/>
<path d="M278.6 86.6001H89.3C86.8 86.6001 84.8 84.6001 84.8 82.1001C84.8 79.6001 86.8 77.6001 89.3 77.6001H278.6C281.1 77.6001 283.1 79.6001 283.1 82.1001C283.1 84.6001 281.1 86.6001 278.6 86.6001Z" fill="white"/>
<path d="M278.3 151.8H89C86.5 151.8 84.5 149.8 84.5 147.3C84.5 144.8 86.5 142.8 89 142.8H278.3C280.8 142.8 282.8 144.8 282.8 147.3C282.8 149.8 280.8 151.8 278.3 151.8Z" fill="white"/>
<path d="M278.3 217H89C86.5 217 84.5 215 84.5 212.5C84.5 210 86.5 208 89 208H278.3C280.8 208 282.8 210 282.8 212.5C282.8 214.9 280.8 217 278.3 217Z" fill="white"/>
<path d="M302.3 207.5L280.5 216.6C278.6 217.4 276.9 216 277.3 214L282.2 190.9C282.3 190.3 282.6 189.8 283 189.4L374.7 78.9001C375.8 77.6001 377.5 77.2001 378.6 78.1001L395.5 92.1001C396.5 93.0001 396.5 94.7001 395.4 96.0001L303.7 206.5C303.3 206.9 302.8 207.3 302.3 207.5Z" fill="#FF9C01"/>
</g>
<defs>
<clipPath id="clip0">
<rect width="396.2" height="381.7" fill="white"/>
</clipPath>
</defs>
</svg>
